<?xml version="1.0" encoding="UTF-8" standalone="no"?>
<svg
   viewBox="0 0 20 20"
   version="1.1"
   id="svg4"
   sodipodi:docname="arrow-down-solid.svg"
   inkscape:version="1.1.2 (b8e25be833, 2022-02-05)"
   width="20"
   height="20"
   xmlns:inkscape="http://www.inkscape.org/namespaces/inkscape"
   xmlns:sodipodi="http://sodipodi.sourceforge.net/DTD/sodipodi-0.dtd"
   xmlns="http://www.w3.org/2000/svg"
   xmlns:svg="http://www.w3.org/2000/svg">
  <defs
     id="defs8" />
  <sodipodi:namedview
     id="namedview6"
     pagecolor="#ffffff"
     bordercolor="#666666"
     borderopacity="1.0"
     inkscape:pageshadow="2"
     inkscape:pageopacity="0.0"
     inkscape:pagecheckerboard="0"
     showgrid="false"
     inkscape:zoom="9.1813396"
     inkscape:cx="35.452343"
     inkscape:cy="31.803638"
     inkscape:window-width="1920"
     inkscape:window-height="1017"
     inkscape:window-x="-8"
     inkscape:window-y="-8"
     inkscape:window-maximized="1"
     inkscape:current-layer="svg4" />
  <!--! Font Awesome Pro 6.1.1 by @fontawesome - https://fontawesome.com License - https://fontawesome.com/license (Commercial License) Copyright 2022 Fonticons, Inc. -->
  <path
     d="m 17.514035,11.683862 -6.350232,5.210791 c -0.246074,0.205177 -0.571524,0.306137 -0.896968,0.306137 -0.3254509,0 -0.6501079,-0.101772 -0.8977669,-0.305321 l -6.350233,-5.21079 c -0.496111,-0.407098 -0.496111,-1.066588 0,-1.473681 0.496112,-0.4070922 1.299816,-0.4070922 1.795927,0 l 4.182022,3.433423 V 3.6527288 c 0,-0.576119 0.568746,-1.012849 1.2343259,-1.012849 0.665586,0 1.30577,0.43673 1.30577,1.012849 v 9.9916922 l 4.183213,-3.432606 c 0.496111,-0.4070922 1.299816,-0.4070922 1.795927,0 0.496111,0.407092 0.494126,1.064955 -0.0022,1.472047 z"
     id="path2"
     style="fill:#ffffff;stroke-width:0.0359523" />
</svg>
