<?xml version="1.0" encoding="UTF-8" standalone="no"?>
<svg
   viewBox="0 0 20 20"
   version="1.1"
   id="svg4"
   sodipodi:docname="arrow-right-solid.svg"
   width="20"
   height="20"
   inkscape:version="1.1.2 (b8e25be833, 2022-02-05)"
   xmlns:inkscape="http://www.inkscape.org/namespaces/inkscape"
   xmlns:sodipodi="http://sodipodi.sourceforge.net/DTD/sodipodi-0.dtd"
   xmlns="http://www.w3.org/2000/svg"
   xmlns:svg="http://www.w3.org/2000/svg">
  <defs
     id="defs8" />
  <sodipodi:namedview
     id="namedview6"
     pagecolor="#ffffff"
     bordercolor="#666666"
     borderopacity="1.0"
     inkscape:pageshadow="2"
     inkscape:pageopacity="0.0"
     inkscape:pagecheckerboard="0"
     showgrid="false"
     inkscape:zoom="12.984375"
     inkscape:cx="31.306859"
     inkscape:cy="26.493381"
     inkscape:window-width="1920"
     inkscape:window-height="1017"
     inkscape:window-x="-8"
     inkscape:window-y="-8"
     inkscape:window-maximized="1"
     inkscape:current-layer="svg4" />
  <!-- Font Awesome Pro 5.15.4 by @fontawesome - https://fontawesome.com License - https://fontawesome.com/license (Commercial License) -->
  <path
     d="M 9.1911983,7.3218855 10.082802,6.6534482 c 0.37752,-0.2830389 0.987987,-0.2830389 1.361497,0 l 7.80752,5.8503318 c 0.377519,0.283028 0.377519,0.740699 0,1.020722 l -7.80752,5.853335 c -0.377526,0.283042 -0.987993,0.283042 -1.361497,0 L 9.1911983,18.709403 c -0.381543,-0.286038 -0.373503,-0.752746 0.01612,-1.032761 L 14.046854,14.220036 H 2.5042342 c -0.5341611,0 -0.9638935,-0.322173 -0.9638935,-0.722632 v -0.963522 c 0,-0.400458 0.4297324,-0.722631 0.9638935,-0.722631 H 14.046832 L 9.2072963,8.3546441 C 8.8137083,8.0746308 8.8056693,7.6079224 9.1911733,7.3218855 Z"
     id="path2"
     style="stroke-width:0.0347746;fill:#ffffff" />
</svg>
