<?xml version="1.0" ?><!DOCTYPE svg  PUBLIC '-//W3C//DTD SVG 1.1//EN'  'http://www.w3.org/Graphics/SVG/1.1/DTD/svg11.dtd'><svg enable-background="new 0 0 64 64" height="64px" id="Layer_1" version="1.1" viewBox="0 0 64 64" width="64px" xml:space="preserve" xmlns="http://www.w3.org/2000/svg" xmlns:xlink="http://www.w3.org/1999/xlink"><g><path d="M49.623,25.428c-3.652-3.132-8.035-4.071-13.464-1.879c-2.921,1.357-6.145,1.542-7.723,0.734   c0,0-6.262-4.489-14.298,1.458c-8.035,5.95-7.304,21.603,1.879,33.5c2.819,3.549,5.533,6.158,11.481,3.549   c4.174-1.565,6.994-1.461,9.707,0.104c2.712,1.565,6.154,1.983,9.808-2.401C50.668,56.109,62.353,39.1,49.623,25.428z" fill="#241F20"/><path d="M47.649,0.01C28.654,3.908,32.238,20.042,32.238,20.042C48.211,16.465,47.255,7.556,47.649,0.01z" fill="#241F20"/></g></svg>